<svg width="24" height="24" viewBox="0 0 24 24" fill="none" xmlns="http://www.w3.org/2000/svg">
<path d="M7 9.5C6.80302 9.5 6.60796 9.5388 6.42597 9.61418C6.24399 9.68956 6.07863 9.80005 5.93934 9.93934C5.80005 10.0786 5.68956 10.244 5.61418 10.426C5.5388 10.608 5.5 10.803 5.5 11C5.5 11.197 5.5388 11.392 5.61418 11.574C5.68956 11.756 5.80005 11.9214 5.93934 12.0607C6.07863 12.1999 6.24399 12.3104 6.42597 12.3858C6.60796 12.4612 6.80302 12.5 7 12.5C7.39782 12.5 7.77936 12.342 8.06066 12.0607C8.34196 11.7794 8.5 11.3978 8.5 11C8.5 10.6022 8.34196 10.2206 8.06066 9.93934C7.77936 9.65804 7.39782 9.5 7 9.5ZM7 11.5C6.86739 11.5 6.74021 11.4473 6.64645 11.3536C6.55268 11.2598 6.5 11.1326 6.5 11C6.5 10.8674 6.55268 10.7402 6.64645 10.6464C6.74021 10.5527 6.86739 10.5 7 10.5C7.13261 10.5 7.25979 10.5527 7.35355 10.6464C7.44732 10.7402 7.5 10.8674 7.5 11C7.5 11.1326 7.44732 11.2598 7.35355 11.3536C7.25979 11.4473 7.13261 11.5 7 11.5ZM19.5 6H18V2.5C18 2.36739 17.9473 2.24021 17.8536 2.14645C17.7598 2.05268 17.6326 2 17.5 2H6.5C6.36739 2 6.24021 2.05268 6.14645 2.14645C6.05268 2.24021 6 2.36739 6 2.5V6H4.5C3.83712 6.00053 3.20154 6.26409 2.73282 6.73282C2.26409 7.20154 2.00053 7.83712 2 8.5V15C2.00079 15.7954 2.31712 16.558 2.87956 17.1204C3.44199 17.6829 4.20459 17.9992 5 18H6V21.5C6 21.6326 6.05268 21.7598 6.14645 21.8536C6.24021 21.9473 6.36739 22 6.5 22H17.5C17.6326 22 17.7598 21.9473 17.8536 21.8536C17.9473 21.7598 18 21.6326 18 21.5V18H19C19.7954 17.9992 20.558 17.6829 21.1204 17.1204C21.6829 16.558 21.9992 15.7954 22 15V8.5C21.9995 7.83712 21.7359 7.20154 21.2672 6.73282C20.7985 6.26409 20.1629 6.00053 19.5 6ZM7 3H17V6H7V3ZM17 21H7V15H17V21ZM21 15C20.9992 15.5302 20.7882 16.0384 20.4133 16.4133C20.0384 16.7882 19.5302 16.9992 19 17H18V14.5C18 14.3674 17.9473 14.2402 17.8536 14.1464C17.7598 14.0527 17.6326 14 17.5 14H6.5C6.36739 14 6.24021 14.0527 6.14645 14.1464C6.05268 14.2402 6 14.3674 6 14.5V17H5C4.46981 16.9992 3.96156 16.7882 3.58666 16.4133C3.21176 16.0384 3.00079 15.5302 3 15V8.5C3 7.672 3.672 7 4.5 7H19.5C20.328 7 21 7.672 21 8.5V15Z" fill="#4F62B0"/>
</svg>
